<?xml version="1.0" encoding="utf-8"?>
<!-- Generator: Adobe Illustrator 18.0.0, SVG Export Plug-In . SVG Version: 6.00 Build 0)  -->
<!DOCTYPE svg PUBLIC "-//W3C//DTD SVG 1.1//EN" "http://www.w3.org/Graphics/SVG/1.1/DTD/svg11.dtd">
<svg version="1.1" id="Layer_1" xmlns="http://www.w3.org/2000/svg" xmlns:xlink="http://www.w3.org/1999/xlink" x="0px" y="0px"
	 viewBox="0 0 1175 881" enable-background="new 0 0 1175 881" xml:space="preserve">
<path fill="#E64097" stroke="#E64097" stroke-width="5" d="M452.4,172c-30.5,38.2-53.5,79.3-69.3,123.4c-10,27.6-14.7,52.3-14.7,74
	c-8.8,8.2-15.3,12.3-18.8,12.3c-2.9,0-4.7-1.8-4.7-5.3c0-7.6,4.1-22.3,11.8-44.6c10-27.6,21.1-52.9,33.5-76.4
	c12.3-22.9,24.1-41.7,35.2-57l10-14.1c0.6-0.6,1.8-1.8,2.4-3.5l-2.9,1.8l-15.3,10c-6.5,4.1-21.1,12.3-44.1,25.3
	c-5.9,3.5-10,4.7-12.3,4.7s-4.1-1.2-4.1-3.5l0.6-3.5c30.5-12.9,59.9-28.2,88.1-46.4L452.4,172z"/>
<path fill="#E64097" stroke="#E64097" stroke-width="5" d="M452.4,172c-30.5,38.2-53.5,79.3-69.3,123.4c-10,27.6-14.7,52.3-14.7,74
	c-8.8,8.2-15.3,12.3-18.8,12.3c-2.9,0-4.7-1.8-4.7-5.3c0-7.6,4.1-22.3,11.8-44.6c10-27.6,21.1-52.9,33.5-76.4
	c12.3-22.9,24.1-41.7,35.2-57l10-14.1c0.6-0.6,1.8-1.8,2.4-3.5l-2.9,1.8l-15.3,10c-6.5,4.1-21.1,12.3-44.1,25.3
	c-5.9,3.5-10,4.7-12.3,4.7s-4.1-1.2-4.1-3.5l0.6-3.5c30.5-12.9,59.9-28.2,88.1-46.4L452.4,172z"/>
<path fill="#E64097" stroke="#E64097" stroke-width="5" d="M584.6,228.4c0,33.5-11.8,65.8-35.8,96.9c-24.7,32.3-49.4,48.2-74.6,48.2
	c-12.9,0-22.3-4.7-29.4-14.1c-5.9-8.2-9.4-18.8-9.4-32.3c0-34.7,18.2-68.1,54.6-101.6l2.4,3.5c-31.7,28.8-47,58.2-47,88.7
	c0,11.2,2.9,20.6,9.4,29.4c7,8.8,15.9,13.5,26.4,13.5c15.9,0,31.7-7.6,48.2-22.3c13.5-12.3,24.1-27,32.9-44.1
	c9.4-18.8,14.1-37.6,14.1-56.4c0-11.2-2.3-20-6.5-27.6c-5.3-8.8-13.5-13.5-23.5-13.5c-21.7,0-35.8,20-43.5,60.5l-4.7-1.2
	c3.5-27.6,13.5-48.8,30-62.3c7.6-6.5,15.9-9.4,24.7-9.4C574,185.5,584.6,200.2,584.6,228.4"/>
<path fill="#E64097" stroke="#E64097" stroke-width="5" d="M584.6,228.4c0,33.5-11.8,65.8-35.8,96.9c-24.7,32.3-49.4,48.2-74.6,48.2
	c-12.9,0-22.3-4.7-29.4-14.1c-5.9-8.2-9.4-18.8-9.4-32.3c0-34.7,18.2-68.1,54.6-101.6l2.4,3.5c-31.7,28.8-47,58.2-47,88.7
	c0,11.2,2.9,20.6,9.4,29.4c7,8.8,15.9,13.5,26.4,13.5c15.9,0,31.7-7.6,48.2-22.3c13.5-12.3,24.1-27,32.9-44.1
	c9.4-18.8,14.1-37.6,14.1-56.4c0-11.2-2.3-20-6.5-27.6c-5.3-8.8-13.5-13.5-23.5-13.5c-21.7,0-35.8,20-43.5,60.5l-4.7-1.2
	c3.5-27.6,13.5-48.8,30-62.3c7.6-6.5,15.9-9.4,24.7-9.4C574,185.5,584.6,200.2,584.6,228.4z"/>
<path fill="#E64097" stroke="#E64097" stroke-width="5" d="M742.6,228.4c0,33.5-12.3,65.8-35.8,96.9c-24.7,32.3-49.3,48.2-74.6,48.2
	c-12.9,0-22.3-4.7-28.8-14.1c-5.9-8.2-9.4-18.8-9.4-32.3c0-34.7,18.2-68.1,54.6-101.6l2.4,3.5c-31.1,28.8-47,58.2-47,88.7
	c0,11.2,2.9,20.6,9.4,29.4c7,8.8,15.9,13.5,26.4,13.5c15.9,0,31.7-7.6,48.2-22.3c13.5-12.3,24.1-27,32.9-44.1
	c9.4-18.8,14.1-37.6,14.1-56.4c0-11.2-2.3-20-6.5-27.6c-5.3-8.8-13.5-13.5-23.5-13.5c-21.7,0-36.4,20-43.5,60.5l-4.7-1.2
	c3.5-27.6,13.5-48.8,30-62.3c7.6-6.5,15.9-9.4,24.7-9.4C732,185.5,742.6,200.2,742.6,228.4"/>
<path fill="#E64097" stroke="#E64097" stroke-width="5" d="M940.6,167.9c0,11.2-15.9,24.7-48.2,40.5
	c-34.1,34.1-64.6,72.9-92.2,115.7c-12.3,20-21.2,36.4-26.4,49.3c-1.2,0.6-1.8,1.2-1.8,1.2l-1.8,1.2c-2.9,1.8-5.3,2.9-7,2.9
	s-2.3-1.2-2.3-2.9c0-6.5,12.3-26.4,37-61.1c7.6-10.6,16.5-22.3,25.8-34.1c15.9-20.6,29.4-35.8,38.8-46.4l17-17.6
	c1.2-1.2,2.3-2.3,4.1-4.7c-7,2.4-14.1,2.9-20.6,2.9c-1.8,0-4.7,0-8.2-0.6c-5.9,12.9-13.5,24.7-24.1,35.2
	c-12.3,12.3-24.7,18.8-37,18.8c-6.5,0-11.8-2.4-15.9-7.6c-4.1-5.3-6.5-11.2-6.5-18.2c0-9.4,2.9-19.4,9.4-30.6
	c14.1-24.1,30.5-36.4,49.3-36.4h2.9c3.5-2.3,6.5-3.5,8.8-3.5c11.2,0,16.5,7.6,16.5,22.9c0,4.7-0.6,9.4-2.3,14.7
	c2.9,0.6,4.7,0.6,6.5,0.6c11.2,0,20.6-1.8,28.8-5.9l3.5-3.5l4.7-4.7c20.6-20.6,33.5-30.6,39.4-30.6
	C940,165.6,940.6,166.1,940.6,167.9 M848.9,212.6c-14.1-5.3-20.6-13.5-20.6-25.3c0-1.8,0.6-4.1,1.2-6.5c-0.6,0-1.8,0-2.9,0
	c-14.7,0-27,10-37.6,29.4c-4.7,8.2-7,16.4-7,24.7c0,5.9,1.8,11.2,5.9,15.3s8.8,6.5,14.7,6.5c10,0,20-4.7,29.4-14.7
	C840.1,233.1,846,223.1,848.9,212.6 M911.2,288.9c0,11.8-3.5,24.1-10.6,36.4c-6.5,11.8-14.7,21.1-25.3,28.8
	c-10.6,8.2-20.6,12.3-30,12.3c-7,0-12.9-2.4-17.6-8.2c-4.1-4.7-6.5-11.2-6.5-18.2c0-19.4,8.2-35.8,24.7-50.5
	c7-6.5,15.9-11.2,24.7-14.1c5.3-8.2,11.8-12.3,19.4-12.3C904.2,263.7,911.2,271.9,911.2,288.9 M903,294.8c0-14.1-5.3-20.6-15.3-20.6
	c-2.9,0-5.9,1.2-8.8,3.5c-2.3,2.4-4.1,5.3-4.1,8.2c0,2.3,1.8,4.7,5.9,7l-0.6,2.9c-8.2,0-12.3-4.1-12.3-11.8
	c-10.6,1.8-19.4,7.6-25.8,16.5c-7,8.8-10,18.8-10,29.4c0,7,2.3,12.9,6.5,18.8c4.1,5.3,10,8.2,17,8.2c15.3,0,28.8-11.2,40-32.9
	C900.6,313,903,303.6,903,294.8 M851.3,201.4c0-14.7-4.1-22.3-12.9-22.3c-3.5,0-5.3,2.4-5.3,7.6c0,10.6,5.9,17.6,17.6,21.1
	C850.7,204.9,851.3,202.6,851.3,201.4"/>
<path fill="#E64097" stroke="#E64097" stroke-width="5" d="M940.6,167.9c0,11.2-15.9,24.7-48.2,40.5
	c-34.1,34.1-64.6,72.9-92.2,115.7c-12.3,20-21.2,36.4-26.4,49.3c-1.2,0.6-1.8,1.2-1.8,1.2l-1.8,1.2c-2.9,1.8-5.3,2.9-7,2.9
	s-2.3-1.2-2.3-2.9c0-6.5,12.3-26.4,37-61.1c7.6-10.6,16.5-22.3,25.8-34.1c15.9-20.6,29.4-35.8,38.8-46.4l17-17.6
	c1.2-1.2,2.3-2.3,4.1-4.7c-7,2.4-14.1,2.9-20.6,2.9c-1.8,0-4.7,0-8.2-0.6c-5.9,12.9-13.5,24.7-24.1,35.2
	c-12.3,12.3-24.7,18.8-37,18.8c-6.5,0-11.8-2.4-15.9-7.6c-4.1-5.3-6.5-11.2-6.5-18.2c0-9.4,2.9-19.4,9.4-30.6
	c14.1-24.1,30.5-36.4,49.3-36.4h2.9c3.5-2.3,6.5-3.5,8.8-3.5c11.2,0,16.5,7.6,16.5,22.9c0,4.7-0.6,9.4-2.3,14.7
	c2.9,0.6,4.7,0.6,6.5,0.6c11.2,0,20.6-1.8,28.8-5.9l3.5-3.5l4.7-4.7c20.6-20.6,33.5-30.6,39.4-30.6
	C940,165.6,940.6,166.1,940.6,167.9z M848.9,212.6c-14.1-5.3-20.6-13.5-20.6-25.3c0-1.8,0.6-4.1,1.2-6.5c-0.6,0-1.8,0-2.9,0
	c-14.7,0-27,10-37.6,29.4c-4.7,8.2-7,16.4-7,24.7c0,5.9,1.8,11.2,5.9,15.3s8.8,6.5,14.7,6.5c10,0,20-4.7,29.4-14.7
	C840.1,233.1,846,223.1,848.9,212.6z M911.2,288.9c0,11.8-3.5,24.1-10.6,36.4c-6.5,11.8-14.7,21.1-25.3,28.8
	c-10.6,8.2-20.6,12.3-30,12.3c-7,0-12.9-2.4-17.6-8.2c-4.1-4.7-6.5-11.2-6.5-18.2c0-19.4,8.2-35.8,24.7-50.5
	c7-6.5,15.9-11.2,24.7-14.1c5.3-8.2,11.8-12.3,19.4-12.3C904.2,263.7,911.2,271.9,911.2,288.9z M903,294.8
	c0-14.1-5.3-20.6-15.3-20.6c-2.9,0-5.9,1.2-8.8,3.5c-2.3,2.4-4.1,5.3-4.1,8.2c0,2.3,1.8,4.7,5.9,7l-0.6,2.9
	c-8.2,0-12.3-4.1-12.3-11.8c-10.6,1.8-19.4,7.6-25.8,16.5c-7,8.8-10,18.8-10,29.4c0,7,2.3,12.9,6.5,18.8c4.1,5.3,10,8.2,17,8.2
	c15.3,0,28.8-11.2,40-32.9C900.6,313,903,303.6,903,294.8z M851.3,201.4c0-14.7-4.1-22.3-12.9-22.3c-3.5,0-5.3,2.4-5.3,7.6
	c0,10.6,5.9,17.6,17.6,21.1C850.7,204.9,851.3,202.6,851.3,201.4z"/>
<path fill="#E64097" stroke="#E64097" stroke-width="5" d="M310.8,458.7c0,24.1-9.4,49.9-28.8,77c-19.4,27-43.5,45.8-72.3,55.8
	c-14.1,5.3-27.6,7.6-41.7,7.6c-20.6,0-40-5.3-58.8-15.9l-1.8,4.1c-5.3,12.9-12.3,28.2-21.7,46.4c-7.1,13.5-14.1,25.3-21.2,35.8
	c-17,25.9-31.1,38.8-41.7,38.8c-7.6,0-11.8-5.3-11.8-15.9c0-15.9,10.6-42.3,32.3-79.3c13.5-23.5,25.3-41.7,35.2-54.6l2.9-3.5
	c-8.2-14.1-12.3-28.2-12.3-42.9c0-5.3,2.9-10.6,8.2-15.3v4.1c0,15.9,4.1,30.5,12.3,43.5l2.9-3.5c15.3-20,25.3-33.5,31.1-39.9
	l10-11.2c0,0,0,0,0.6-0.6l0.6-0.6c0.6-0.6,1.2-1.2,1.8-2.4c1.8-5.9,4.1-16.5,5.9-30.6c1.8-12.9,2.9-24.1,2.9-34.1v-5.9
	c1.8-0.6,3.5-1.2,4.1-1.2c0.6,0,1.2,0,1.2,0h0.6c2.4,0,2.9,1.2,2.9,3.5c0,0-0.6,1.2-0.6,2.9l-0.6,4.1c-0.6,7-4.1,23.5-9.4,49.3
	l-1.2,4.1c46.4-47,86.9-71.1,121-71.1c14.1,0,25.3,4.7,34.1,13.5C306.7,431.1,310.8,442.9,310.8,458.7z M105.8,580.9
	c-7.6-5.3-15.3-12.3-21.2-21.7c-18.8,27-34.1,51.1-45.8,73.4s-17.6,38.8-17.6,48.8c0,8.2,3.5,12.9,10,12.9c8.8,0,20-10,32.9-29.4
	c7-10.6,13.5-21.7,20-34.7c5.9-12.3,12.9-27,20-44.6L105.8,580.9z M133.9,496.3c-8.8,9.4-18.8,21.7-29.4,36.4
	c-4.7,6.5-8.8,11.8-11.8,15.9c4.1,7.6,10.6,14.1,18.2,20.6l2.9-8.2c3.5-9.4,7.6-21.1,12.3-34.7C128.1,517.5,131,507.5,133.9,496.3z
	 M296.7,468.1c0-14.1-4.1-25.3-12.3-34.7c-8.2-8.8-19.4-13.5-32.9-13.5c-21.1,0-45.2,10-71.7,30.6c-12.3,9.4-25.3,21.7-38.8,35.8
	c-1.2,4.7-1.8,6.5-1.8,5.9l-6.5,23.5c-1.2,4.1-2.9,11.2-5.9,19.4L114,570.9c19.4,14.1,39.9,20.6,61.7,20.6
	c20.6,0,40.5-6.5,59.9-18.8c18.2-11.8,32.9-27,44.1-45.8C290.8,508.6,296.7,488.7,296.7,468.1z"/>
<path fill="#E64097" stroke="#E64097" stroke-width="5" d="M598.7,511.6c0,1.8-7,10.6-20.6,25.9c-12.9,14.1-32.9,34.7-60.5,60.5
	c-21.1,17-38.2,25.9-51.1,26.4c-14.1,0.6-21.1-8.2-22.3-25.8c-0.6-14.1,2.9-31.1,11.2-50.5c-0.6,0.6-1.2,1.2-2.4,2.4l-1.2,1.2
	c-0.6,0.6-0.6,0.6-1.2,1.2l-18.8,20c-32.3,35.8-61.1,54.6-85.2,55.8c-14.1,0.6-21.1-7-21.7-23.5c-1.2-28.8,13.5-65.2,44.6-110.4
	c7.1-2.9,14.1-5.3,22.3-5.9c-7.6,10.6-15.9,24.1-24.1,39.9c-17,32.3-24.7,56.4-24.1,72.3c0.6,11.2,5.3,16.5,14.7,16.5
	c12.3-0.6,29.4-10.6,49.9-30c27-25.3,50.5-50.5,69.3-77l13.5,1.8c-18.8,40-27.6,68.2-27,84c0.6,11.2,4.7,16.5,12.9,16.5
	c18.8-0.6,53.5-29.4,102.2-85.8c10-11.8,15.9-17.6,17-17.6C597.5,508.6,598.7,509.8,598.7,511.6"/>
<path fill="#E64097" stroke="#E64097" stroke-width="5" d="M598.7,511.6c0,1.8-7,10.6-20.6,25.9c-12.9,14.1-32.9,34.7-60.5,60.5
	c-21.1,17-38.2,25.9-51.1,26.4c-14.1,0.6-21.1-8.2-22.3-25.8c-0.6-14.1,2.9-31.1,11.2-50.5c-0.6,0.6-1.2,1.2-2.4,2.4l-1.2,1.2
	c-0.6,0.6-0.6,0.6-1.2,1.2l-18.8,20c-32.3,35.8-61.1,54.6-85.2,55.8c-14.1,0.6-21.1-7-21.7-23.5c-1.2-28.8,13.5-65.2,44.6-110.4
	c7.1-2.9,14.1-5.3,22.3-5.9c-7.6,10.6-15.9,24.1-24.1,39.9c-17,32.3-24.7,56.4-24.1,72.3c0.6,11.2,5.3,16.5,14.7,16.5
	c12.3-0.6,29.4-10.6,49.9-30c27-25.3,50.5-50.5,69.3-77l13.5,1.8c-18.8,40-27.6,68.2-27,84c0.6,11.2,4.7,16.5,12.9,16.5
	c18.8-0.6,53.5-29.4,102.2-85.8c10-11.8,15.9-17.6,17-17.6C597.5,508.6,598.7,509.8,598.7,511.6z"/>
<path fill="#E64097" stroke="#E64097" stroke-width="5" d="M787.8,501.6c0,1.2-1.8,4.1-5.9,9.4c-57.6,71.1-101.6,107.5-132.2,109.3
	c-10.6,0.6-20-2.3-27-8.8c-7-6.5-10.6-15.3-11.2-25.8c-1.2-21.2,10-47,32.3-78.1c1.8-2.4,2.9-4.7,2.9-5.3c0-1.2-1.2-1.8-2.9-1.8
	c-1.2,0-4.1,1.2-8.2,2.4c-7,2.9-12.9,4.1-17.6,4.1s-9.4-0.6-14.1-1.8v0.6l-0.6,0.6l-5.3,6.5c-4.1,5.3-7,7.6-8.2,7.6
	c-1.8,0-2.4-0.6-2.9-2.3c0-1.2,0.6-1.8,1.2-2.4l1.8-1.8l0.6-0.6c0,0,0-0.6,0.6-0.6l4.7-6.5c1.2-1.8,2.3-3.5,3.5-4.7
	c-2.4-4.1-4.1-7.6-4.1-11.2c0-6.5,1.8-13.5,6.5-21.1c4.7-7.6,10-11.8,15.9-11.8c5.3,0,8.2,2.4,8.2,8.2s-4.7,15.9-14.7,30
	c-0.6,1.2-1.8,2.4-3.5,4.7c2.9,0.6,5.3,1.2,8.2,1.2c10.6-0.6,21.7-4.1,34.1-11.2c8.8-5.3,14.7-7.6,17-7.6c5.3,0,7.6,1.8,7.6,6.5
	c0,2.4-0.6,4.7-2.4,7L661.5,511c-20.6,28.2-30.5,51.7-30,69.9c0.6,7.6,3.5,14.7,8.8,20c5.3,5.3,12.3,7.6,20,7.6
	c17-0.6,41.7-17.6,72.9-49.9c14.1-15.3,27-28.8,37-41.7l8.8-11.2l2.9-2.9c1.2-1.2,1.8-1.8,2.3-1.8
	C786.7,499.2,787.8,499.8,787.8,501.6"/>
<path fill="#E64097" stroke="#E64097" stroke-width="5" d="M787.8,501.6c0,1.2-1.8,4.1-5.9,9.4c-57.6,71.1-101.6,107.5-132.2,109.3
	c-10.6,0.6-20-2.3-27-8.8c-7-6.5-10.6-15.3-11.2-25.8c-1.2-21.2,10-47,32.3-78.1c1.8-2.4,2.9-4.7,2.9-5.3c0-1.2-1.2-1.8-2.9-1.8
	c-1.2,0-4.1,1.2-8.2,2.4c-7,2.9-12.9,4.1-17.6,4.1s-9.4-0.6-14.1-1.8v0.6l-0.6,0.6l-5.3,6.5c-4.1,5.3-7,7.6-8.2,7.6
	c-1.8,0-2.4-0.6-2.9-2.3c0-1.2,0.6-1.8,1.2-2.4l1.8-1.8l0.6-0.6c0,0,0-0.6,0.6-0.6l4.7-6.5c1.2-1.8,2.3-3.5,3.5-4.7
	c-2.4-4.1-4.1-7.6-4.1-11.2c0-6.5,1.8-13.5,6.5-21.1c4.7-7.6,10-11.8,15.9-11.8c5.3,0,8.2,2.4,8.2,8.2s-4.7,15.9-14.7,30
	c-0.6,1.2-1.8,2.4-3.5,4.7c2.9,0.6,5.3,1.2,8.2,1.2c10.6-0.6,21.7-4.1,34.1-11.2c8.8-5.3,14.7-7.6,17-7.6c5.3,0,7.6,1.8,7.6,6.5
	c0,2.4-0.6,4.7-2.4,7L661.5,511c-20.6,28.2-30.5,51.7-30,69.9c0.6,7.6,3.5,14.7,8.8,20c5.3,5.3,12.3,7.6,20,7.6
	c17-0.6,41.7-17.6,72.9-49.9c14.1-15.3,27-28.8,37-41.7l8.8-11.2l2.9-2.9c1.2-1.2,1.8-1.8,2.3-1.8
	C786.7,499.2,787.8,499.8,787.8,501.6z"/>
<path fill="#E64097" stroke="#E64097" stroke-width="5" d="M941.8,494.6c0,1.2-3.5,6.5-10.6,14.7c-30,37-55.8,64-77,81.7
	c-24.1,20-44.7,30.5-61.7,31.1c-11.8,0.6-22.3-2.9-30-11.2c-8.2-7.6-12.3-17.6-12.9-30c-0.6-17,4.7-35.8,16.5-55.8
	c10-17.6,22.9-32.9,37.6-45.8c16.5-14.7,31.1-22.3,44.7-22.9s21.2,4.7,21.2,16.4c1.2,21.7-14.1,41.1-44.7,57.6
	c-13.5,7.6-27,11.2-40,11.8c-2.3,0-6.5,0-13.5-0.6c-2.3,9.4-3.5,18.2-2.9,24.7c0.6,10.6,4.1,19.4,10.6,25.8
	c6.5,6.5,15.3,10,25.8,9.4c20-0.6,44.1-14.7,71.7-41.7c15.3-14.7,30.5-31.7,46.4-51.1l7-8.8c0.6-1.2,2.3-2.9,4.1-5.3
	c1.8-2.4,3.5-3.5,4.7-3.5C940.6,492.2,941.8,492.8,941.8,494.6 M855.4,480.4c-0.6-8.8-5.3-12.9-14.7-12.3c-14.1,0.6-30,11.2-47,32.3
	c-7,8.8-14.1,20.6-20,35.2c2.9,0.6,7,1.2,12.3,0.6c24.1-1.2,44.1-11.8,59.9-31.7C852.5,496.3,856,488.1,855.4,480.4"/>
<path fill="#E64097" stroke="#E64097" stroke-width="5" d="M941.8,494.6c0,1.2-3.5,6.5-10.6,14.7c-30,37-55.8,64-77,81.7
	c-24.1,20-44.7,30.5-61.7,31.1c-11.8,0.6-22.3-2.9-30-11.2c-8.2-7.6-12.3-17.6-12.9-30c-0.6-17,4.7-35.8,16.5-55.8
	c10-17.6,22.9-32.9,37.6-45.8c16.5-14.7,31.1-22.3,44.7-22.9s21.2,4.7,21.2,16.4c1.2,21.7-14.1,41.1-44.7,57.6
	c-13.5,7.6-27,11.2-40,11.8c-2.3,0-6.5,0-13.5-0.6c-2.3,9.4-3.5,18.2-2.9,24.7c0.6,10.6,4.1,19.4,10.6,25.8
	c6.5,6.5,15.3,10,25.8,9.4c20-0.6,44.1-14.7,71.7-41.7c15.3-14.7,30.5-31.7,46.4-51.1l7-8.8c0.6-1.2,2.3-2.9,4.1-5.3
	c1.8-2.4,3.5-3.5,4.7-3.5C940.6,492.2,941.8,492.8,941.8,494.6z M855.4,480.4c-0.6-8.8-5.3-12.9-14.7-12.3
	c-14.1,0.6-30,11.2-47,32.3c-7,8.8-14.1,20.6-20,35.2c2.9,0.6,7,1.2,12.3,0.6c24.1-1.2,44.1-11.8,59.9-31.7
	C852.5,496.3,856,488.1,855.4,480.4z"/>
<g id="Layer_2_1_">
	<path fill="#8BC541" d="M1041,673.6c0,0,10.3-20.7-1.4-50.6s-58.2-78.9-67.5-141.8c-9.6-63,38.2-93.8,56.5-100.8
		c18.6-7,34.4,7.6,34.4,7.6s22.7-22.6,54.7,13.4C1208.6,542.6,1041,673.6,1041,673.6z"/>
	
		<linearGradient id="SVGID_1_" gradientUnits="userSpaceOnUse" x1="-148.5278" y1="477.4277" x2="-146.7455" y2="477.4277" gradientTransform="matrix(-73.9501 -60.3327 -62.5365 69.5809 19971.1523 -41637.1055)">
		<stop  offset="0" style="stop-color:#A6CF5E"/>
		<stop  offset="0.1067" style="stop-color:#A6CF5E"/>
		<stop  offset="0.4326" style="stop-color:#CFE18E"/>
		<stop  offset="0.9045" style="stop-color:#8BC542"/>
		<stop  offset="1" style="stop-color:#8BC542"/>
	</linearGradient>
	<path fill="url(#SVGID_1_)" d="M972.1,481.2c8.6,56.6,46.8,102.1,63,132c-10.3-31.2-48.9-81.1-50.9-141.5
		c-1.7-54.7,37.5-83,60.2-92.6c-4.8-1-10.3-0.6-16.2,1.3C1010,387.4,962.5,418.2,972.1,481.2z"/>
	
		<linearGradient id="SVGID_2_" gradientUnits="userSpaceOnUse" x1="-144.2822" y1="474.3168" x2="-142.537" y2="474.3168" gradientTransform="matrix(-74.636 -103.0626 -107.466 69.7048 41339.7188 -47316.6719)">
		<stop  offset="0" style="stop-color:#A6CF5E"/>
		<stop  offset="8.988760e-02" style="stop-color:#A6CF5E"/>
		<stop  offset="0.309" style="stop-color:#CFE18E"/>
		<stop  offset="0.6742" style="stop-color:#8BC542"/>
		<stop  offset="1" style="stop-color:#8BC542"/>
	</linearGradient>
	<path fill="url(#SVGID_2_)" d="M1095.7,400.1c90.5,123.4-30.6,249.3-54.4,272.2c-0.3,0.6-0.7,1.3-0.7,1.3s179-137.7,76.8-271.9
		c-13.1-14.6-24.8-19.7-33.7-20.4c-1,0.6-2.1,1.6-3.4,2.2C1085.7,389,1090.9,395,1095.7,400.1z"/>
	<path fill="#4C894A" d="M1027.9,342.9c5.9,9.2,14.8,27.7,19.6,38.2c53.4,141.5,35.5,180,35.5,180s19.6-51.8,9-125.9
		c-1.7-12.1-4.5-24.5-7.9-37.8c-5.5-17.8-12.4-44.2-20-70.9C1063.7,325,1026.5,340.6,1027.9,342.9z"/>
</g>
</svg>
